<svg style="position: absolute; width: 0; height: 0; overflow: hidden;" version="1.1" xmlns="http://www.w3.org/2000/svg" xmlns:xlink="http://www.w3.org/1999/xlink">
<defs>
<symbol id="icon-pencil" viewBox="0 0 32 32">
<path class="path1" d="M30.276 1.722C29.168 0.611 27.69 0 26.121 0s-3.045 0.61-4.154 1.72L4.294 19.291c-0.105 0.104-0.185 0.229-0.235 0.367
				l-4 11c-0.129 0.355-0.046 0.756 0.215 1.031C0.466 31.891 0.729 32 1 32c0.098 0 0.196-0.014 0.293-0.044l9.949-3.052
				c0.156-0.047 0.298-0.133 0.414-0.248l18.621-18.621C31.389 8.926 32 7.448 32 5.878C31.999 4.309 31.389 2.832 30.276 1.722z
				 M10.092 27.165l-3.724 1.144c-0.217-0.637-0.555-1.201-1.016-1.662c-0.401-0.399-0.866-0.709-1.356-0.961L5.7 21H8v2
				c0 0.553 0.447 1 1 1h1.765L10.092 27.165z M24.812 12.671L12.628 24.855l0.35-1.647c0.062-0.296-0.012-0.603-0.202-0.837
				C12.586 22.136 12.301 22 12 22h-2v-2c0-0.552-0.448-1-1-1H7.422L19.315 7.175l0.012 0.011c0.732-0.733 1.707-1.136 2.742-1.136
				s2.011 0.403 2.742 1.136s1.138 1.707 1.138 2.743C25.949 10.965 25.546 11.938 24.812 12.671z M28.862 8.621L27.93 9.554
				c-0.09-1.429-0.683-2.761-1.703-3.782c-1.021-1.022-2.354-1.614-3.787-1.703l0.938-0.931l0.002-0.002
				C24.11 2.403 25.085 2 26.121 2s2.01 0.403 2.741 1.136C29.596 3.869 30 4.843 30 5.878C30 6.915 29.598 7.889 28.862 8.621z
				 M22.293 8.293l-10 10c-0.391 0.391-0.391 1.023 0 1.414C12.487 19.902 12.744 20 13 20s0.511-0.098 0.707-0.293l10-10
				c0.391-0.391 0.391-1.023 0-1.414C23.315 7.902 22.684 7.902 22.293 8.293z"/></path>
</symbol>
<symbol id="icon-500px" viewBox="0 0 50 50">
<path style=" " d="M 15 4 C 14.734375 4 14.480469 4.105469 14.292969 4.292969 C 14.105469 4.480469 14 4.734375 14 5 L 14.007813 21.976563 C 14.007813 22.453125 14.34375 22.863281 14.8125 22.957031 C 15.277344 23.050781 15.746094 22.800781 15.933594 22.363281 C 17.808594 17.890625 22.152344 15 27 15 C 33.617188 15 39 20.382813 39 27 C 39 33.617188 33.617188 39 27 39 C 24.425781 39 21.996094 38.175781 20 36.734375 L 20 27 C 20 23.140625 23.140625 20 27 20 C 30.859375 20 34 23.140625 34 27 C 34 30.859375 30.859375 34 27 34 C 26.132813 34 25.273438 33.835938 24.453125 33.515625 C 23.9375 33.3125 23.355469 33.566406 23.15625 34.078125 C 22.953125 34.59375 23.207031 35.171875 23.71875 35.375 C 24.777344 35.789063 25.882813 36 27 36 C 31.960938 36 36 31.960938 36 27 C 36 22.039063 31.960938 18 27 18 C 22.039063 18 18 22.039063 18 27 L 18 34.917969 C 17.152344 33.953125 16.445313 32.84375 15.933594 31.609375 C 15.71875 31.101563 15.132813 30.859375 14.625 31.074219 C 14.113281 31.285156 13.875 31.871094 14.085938 32.378906 C 16.269531 37.617188 21.339844 41 27 41 C 34.71875 41 41 34.71875 41 27 C 41 19.28125 34.71875 13 27 13 C 22.632813 13 18.617188 15.007813 16.003906 18.324219 L 16 6 L 36 6 C 36.550781 6 37 5.550781 37 5 C 37 4.449219 36.550781 4 36 4 Z M 27 8 C 24.824219 8 22.691406 8.367188 20.65625 9.085938 C 20.136719 9.269531 19.863281 9.839844 20.046875 10.359375 C 20.230469 10.882813 20.804688 11.152344 21.324219 10.96875 C 23.140625 10.328125 25.050781 10 27 10 C 31.679688 10 36.042969 11.859375 39.28125 15.242188 C 39.476563 15.449219 39.738281 15.550781 40 15.550781 C 40.25 15.550781 40.5 15.460938 40.691406 15.273438 C 41.089844 14.890625 41.105469 14.257813 40.722656 13.859375 C 37.105469 10.082031 32.230469 8 27 8 Z M 25 24 C 24.746094 24 24.488281 24.097656 24.292969 24.292969 C 23.902344 24.683594 23.902344 25.316406 24.292969 25.707031 L 25.585938 27 L 24.292969 28.292969 C 23.902344 28.683594 23.902344 29.316406 24.292969 29.707031 C 24.488281 29.902344 24.742188 30 25 30 C 25.257813 30 25.511719 29.902344 25.707031 29.707031 L 27 28.414063 L 28.292969 29.707031 C 28.488281 29.902344 28.742188 30 29 30 C 29.257813 30 29.511719 29.902344 29.707031 29.707031 C 30.097656 29.316406 30.097656 28.683594 29.707031 28.292969 L 28.414063 27 L 29.707031 25.707031 C 30.097656 25.316406 30.097656 24.683594 29.707031 24.292969 C 29.316406 23.902344 28.683594 23.902344 28.292969 24.292969 L 27 25.585938 L 25.707031 24.292969 C 25.511719 24.097656 25.253906 24 25 24 Z M 8.976563 26.5625 C 8.425781 26.578125 7.992188 27.042969 8.007813 27.59375 C 8.328125 37.914063 16.667969 46 27 46 C 32.761719 46 38.144531 43.421875 41.777344 38.933594 C 42.125 38.5 42.058594 37.871094 41.628906 37.523438 C 41.199219 37.175781 40.570313 37.246094 40.222656 37.671875 C 36.972656 41.695313 32.152344 44 27 44 C 17.753906 44 10.292969 36.765625 10.007813 27.53125 C 9.992188 26.980469 9.53125 26.527344 8.976563 26.5625 Z "/>
</symbol>
<symbol id="icon-thingiverse" viewBox="0 0 50 50">
<path style="line-height:normal;text-indent:0;text-align:start;text-decoration-line:none;text-decoration-style:solid;text-decoration-color:#000;text-transform:none;block-progression:tb;isolation:auto;mix-blend-mode:normal" d="M 25 2 C 12.309295 2 2 12.309295 2 25 C 2 37.690705 12.309295 48 25 48 C 37.690705 48 48 37.690705 48 25 C 48 12.309295 37.690705 2 25 2 z M 25 4 C 36.609824 4 46 13.390176 46 25 C 46 36.609824 36.609824 46 25 46 C 13.390176 46 4 36.609824 4 25 C 4 13.390176 13.390176 4 25 4 z M 16 15 L 16 21 L 22 21 L 22 38 L 28 38 L 28 21 L 34 21 L 34 15 L 16 15 z" font-weight="400" font-family="sans-serif" white-space="normal" overflow="visible"/>
</symbol>
<symbol id="icon-clipboard" viewBox="0 0 50 60">
<path d="M15,19h9c0.553,0,1-0.447,1-1s-0.447-1-1-1h-9c-0.553,0-1,0.447-1,1S14.447,19,15,19z"/>
<path d="M15,26h5c0.553,0,1-0.447,1-1s-0.447-1-1-1h-5c-0.553,0-1,0.447-1,1S14.447,26,15,26z"/>
<path d="M28,26h7c0.553,0,1-0.447,1-1s-0.447-1-1-1h-7c-0.553,0-1,0.447-1,1S27.447,26,28,26z"/>
<path d="M24.71,25.71C24.89,25.52,25,25.26,25,25c0-0.261-0.11-0.521-0.29-0.71c-0.38-0.37-1.04-0.37-1.42,0
C23.109,24.479,23,24.739,23,25c0,0.26,0.109,0.52,0.29,0.71C23.479,25.899,23.729,26,24,26C24.26,26,24.52,25.89,24.71,25.71z"/>
<path d="M39,26c0.27,0,0.52-0.11,0.71-0.29C39.89,25.52,40,25.26,40,25c0-0.261-0.11-0.521-0.29-0.71c-0.38-0.37-1.04-0.37-1.42,0
C38.109,24.479,38,24.739,38,25c0,0.26,0.109,0.52,0.29,0.71C38.479,25.899,38.729,26,39,26z"/>
<path d="M18,32c0,0.553,0.447,1,1,1h7c0.553,0,1-0.447,1-1s-0.447-1-1-1h-7C18.447,31,18,31.447,18,32z"/>
<path d="M15.71,32.71C15.899,32.52,16,32.26,16,32c0-0.261-0.101-0.521-0.29-0.71c-0.38-0.37-1.04-0.37-1.42,0
C14.1,31.479,14,31.729,14,32c0,0.26,0.109,0.52,0.29,0.71C14.479,32.89,14.74,33,15,33S15.52,32.89,15.71,32.71z"/>
<path d="M20.525,37.137c-2.19,1.14-2.927,3.321-3.196,5.582c-0.414-0.347-0.828-0.693-1.241-1.04
c-0.98-0.821-2.402,0.586-1.414,1.415c0.935,0.783,1.871,1.567,2.806,2.351c0.658,0.551,1.676,0.203,1.707-0.707
c0.073-2.166,0.175-4.742,2.348-5.873C22.677,38.269,21.667,36.542,20.525,37.137z"/>
<path d="M27.175,41.125c-1.385,0.321-2.961,2.083-3.936,0.106c-0.569-1.154-2.295-0.142-1.727,1.009
c0.518,1.049,1.5,1.784,2.669,1.932c0.594,0.075,1.131-0.009,1.688-0.226c0.409-0.159,1.937-1.308,2.267-0.717
c0.628,1.124,2.356,0.117,1.727-1.009C29.326,41.258,28.239,40.878,27.175,41.125z"/>
<path d="M55.015,0h-4.029c-1.299,0-2.396,0.839-2.805,2H38h-6V1c0-0.553-0.447-1-1-1h-9c-0.553,0-1,0.447-1,1v1h-6H2v58h49v-4.484
l1,1.75V59c0,0.553,0.447,1,1,1s1-0.447,1-1v-1.734l4-7V13V7V2.985C58,1.339,56.661,0,55.015,0z M50,9h6v2h-6V9z M30,2v1v2h-7V3V2
H30z M21,4v2v1h1h9h1V6V4h5v3v1H16V7V4H21z M15,10h23h1V9h5v44H9V9h5v1H15z M49,58H4V4h10v3H7v48h39V7h-7V4h9v3v6v37.266l1,1.75V58
z M50.723,51h4.554L53,54.984l-2-3.5L50.723,51z M56,49h-6V13h6V49z M50,7V2.985C50,2.442,50.442,2,50.985,2h4.029
C55.558,2,56,2.442,56,2.985V7H50z"/>
</symbol>
</defs>
</svg>
